<?xml version="1.0" encoding="UTF-8" standalone="no"?>
<svg
   xmlns:dc="http://purl.org/dc/elements/1.1/"
   xmlns:cc="http://creativecommons.org/ns#"
   xmlns:rdf="http://www.w3.org/1999/02/22-rdf-syntax-ns#"
   xmlns:svg="http://www.w3.org/2000/svg"
   xmlns="http://www.w3.org/2000/svg"
   xmlns:sodipodi="http://sodipodi.sourceforge.net/DTD/sodipodi-0.dtd"
   xmlns:inkscape="http://www.inkscape.org/namespaces/inkscape"
   width="75.224"
   height="10.635"
   version="1.1"
   id="svg4"
   sodipodi:docname="logo.svg"
   inkscape:version="0.92.5 (2060ec1f9f, 2020-04-08)">
  <metadata
     id="metadata10">
    <rdf:RDF>
      <cc:Work
         rdf:about="">
        <dc:format>image/svg+xml</dc:format>
        <dc:type
           rdf:resource="http://purl.org/dc/dcmitype/StillImage" />
      </cc:Work>
    </rdf:RDF>
  </metadata>
  <defs
     id="defs8" />
  <sodipodi:namedview
     pagecolor="#ffffff"
     bordercolor="#666666"
     borderopacity="1"
     objecttolerance="10"
     gridtolerance="10"
     guidetolerance="10"
     inkscape:pageopacity="0"
     inkscape:pageshadow="2"
     inkscape:window-width="783"
     inkscape:window-height="480"
     id="namedview6"
     showgrid="false"
     inkscape:zoom="2.4394849"
     inkscape:cx="95.977572"
     inkscape:cy="12.732881"
     inkscape:window-x="961"
     inkscape:window-y="226"
     inkscape:window-maximized="0"
     inkscape:current-layer="svg4" />
  <path
     style="line-height:1.25;fill:#ffffff"
     d="M42.005 0c-.939 0-1.74.677-1.74 1.547 0 .87.801 1.547 1.74 1.547.94 0 1.74-.677 1.74-1.547 0-.87-.8-1.547-1.74-1.547zm8.613.193v10.15h2.999v-.689c.359.428 1.007.98 2.168.98 1.546 0 3.052-1.312 3.052-3.632 0-2.472-1.616-3.62-3.052-3.62-1.174 0-1.81.596-2.073.886V.193zM1.932.398v.866h7.642V.398zm-.75 1.545v.868h9.263v-.868zm17.366 1.44c-.953 0-1.698.443-2.154 1.064v-.773h-2.9v6.67h2.9V6.96c0-.801.331-1.258.787-1.258.428 0 .566.346.566.871v3.77h2.9V6.96c0-.801.332-1.258.788-1.258.428 0 .566.346.566.871v3.77h2.9V6.449c0-1.008-.164-3.066-2.374-3.066-.995 0-1.63.36-2.168 1.064-.47-.828-1.134-1.064-1.81-1.064zm18.461 0c-2.113 0-3.039 1.12-3.039 2.39 0 1.299.76 1.795 2.113 2.016.622.11.72.277.72.525 0 .042-.015.387-.706.387-.566 0-.967-.207-1.56-.539l-.774 1.768c.815.51 1.533.705 2.707.705 3.135 0 3.232-1.935 3.232-2.418 0-.815-.263-1.78-1.824-2.03-.51-.082-1.103-.096-1.103-.566 0-.11.055-.498.746-.498.373 0 .856.14 1.34.43l.744-1.547c-1.091-.608-2.361-.623-2.596-.623zm10.863 0c-2.25 0-3.63 1.644-3.63 3.619 0 2.21 1.586 3.633 3.63 3.633a4.613 4.613 0 002.086-.485V7.596c-.594.442-.925.525-1.34.525-.69 0-1.38-.317-1.38-1.049 0-.815.636-1.176 1.271-1.176.608 0 1.132.334 1.45.596V3.867c-.76-.331-1.355-.484-2.087-.484zm15.327 0c-2.832 0-4.034 1.727-4.034 3.619 0 1.906 1.216 3.633 4.034 3.633 2.817 0 4.033-1.727 4.033-3.633 0-1.892-1.202-3.62-4.033-3.62zm-62.63.133v.959h10.486v-.96zm25.186.158v3.592c0 .8.07 3.369 3.772 3.369 3.701 0 3.77-2.568 3.77-3.37V3.675h-3.095v3.494c0 .331-.012.953-.675.953s-.678-.622-.678-.953V3.674zm14.703 0v6.67h3.094v-6.67h-1.547zm26.356 0l2.416 3.135-2.707 3.535h3.191l1.16-1.89 1.16 1.89h3.19l-2.707-3.535 2.418-3.135h-3.287l-.774 1.588-.773-1.588zM0 5.186v5.162h11.627V5.186zm54.679.517c.677 0 1.16.526 1.16 1.299 0 .801-.483 1.312-1.16 1.312-.677 0-1.16-.511-1.16-1.312 0-.773.483-1.299 1.16-1.299zm8.52.193c.8 0 1.035.692 1.035 1.106 0 .428-.234 1.12-1.035 1.12-.801 0-1.038-.692-1.038-1.12 0-.414.237-1.106 1.038-1.106z"
     id="path2" />
</svg>
