<svg xmlns="http://www.w3.org/2000/svg" style="visibility:hidden; width:0; height:0;">

	<symbol id="tracklist" viewBox="0 0 31.75 31.75">
		<g stroke-width=".238">
			<path d="M1.119 4.885v4.02h3.814v-4.02H1.119zm9.452 0v4.02h20.06v-4.02H10.57zm-9.452 8.912v4.02h3.814v-4.02H1.119zm9.452 0v4.02h20.06v-4.02H10.57zm-9.452 9.049v4.02h3.814v-4.02H1.119zm9.452 0v4.02h20.06v-4.02H10.57z" />
		</g>
	</symbol>

	<symbol id="download" viewBox="0 0 31.75 31.75">
		<path style="line-height:normal;font-variant-ligatures:normal;font-variant-position:normal;font-variant-caps:normal;font-variant-numeric:normal;font-variant-alternates:normal;font-feature-settings:normal;text-indent:0;text-align:start;text-decoration-line:none;text-decoration-style:solid;text-decoration-color:#000;text-transform:none;text-orientation:mixed;white-space:normal;shape-padding:0;isolation:auto;mix-blend-mode:normal;solid-color:#000;solid-opacity:1" d="M2.005 20.367v8.995h27.74v-8.995h-2.64v6.352H4.646v-6.352zm9.722-17.979v11.657H7.223l8.572 8.77 8.733-8.77h-4.504V2.388z" />
	</symbol>

	<symbol id="close" viewBox="0 0 31.75 31.75">
		<path d="M7.04 3.314L3.315 7.041l8.835 8.834-8.835 8.834 3.727 3.727 8.834-8.834 8.834 8.834 3.727-3.727-8.835-8.834 8.835-8.834-3.727-3.727-8.834 8.834z"/>
	</symbol>

	<symbol id="hamburger" viewBox="0 0 30.427 30.427">
	  <path d="M0 21.431h30.427v4.763H0zm0-9.26h30.427v4.762H0zm0-9.26h30.427v4.762H0z"/>
	</symbol>

	<symbol id="pause" viewBox="0 0 31.75 31.75">
		<path d="M6.193 4.233h7.144v23.284H6.193zm12.22 0h7.144v23.284h-7.144z"/>
	</symbol>

	<symbol id="play" viewBox="0 0 31.75 31.75">
		<path d="M10.077 1.837l19.901 14.038-19.901 14.038z"/>
	</symbol>

	<symbol id="user-in-circle" viewBox="0 0 31.75 31.75">
  	<path d="M15.875.124C7.177.124.124 7.176.124 15.875c0 8.7 7.052 15.751 15.751 15.751 8.7 0 15.751-7.052 15.751-15.751 0-8.7-7.052-15.751-15.751-15.751zm0 4.71a5.21 5.21 0 110 10.42 5.21 5.21 0 010-10.42zm-.004 22.674a11.56 11.56 0 01-7.527-2.776 2.22 2.22 0 01-.779-1.688c0-2.917 2.361-5.252 5.28-5.252h6.062a5.247 5.247 0 015.271 5.252 2.214 2.214 0 01-.778 1.687 11.556 11.556 0 01-7.528 2.777z"/>
	</symbol>

	<symbol id="settings" viewBox="0 0 31.75 31.75">
		<path d="M29.82 19.04l-2.727-2.076c.034-.32.064-.694.064-1.09 0-.396-.029-.77-.064-1.09l2.729-2.078c.507-.39.645-1.083.322-1.659L27.31 6.269c-.303-.539-.967-.816-1.64-.574L22.45 6.953c-.617-.433-1.263-.8-1.932-1.092l-.49-3.323c-.08-.63-.644-1.108-1.31-1.108h-5.686c-.666 0-1.229.477-1.308 1.098l-.49 3.336a11.45 11.45 0 00-1.929 1.091L6.08 5.694c-.605-.227-1.328.028-1.628.565l-2.84 4.783a1.272 1.272 0 00.322 1.667l2.727 2.077c-.043.405-.064.758-.064 1.09 0 .33.02.683.064 1.09l-2.73 2.077c-.506.391-.644 1.084-.32 1.659l2.835 4.777c.303.538.96.818 1.64.575l3.218-1.258a11.21 11.21 0 001.93 1.092l.49 3.322c.08.633.643 1.11 1.31 1.11h5.686c.667 0 1.23-.477 1.31-1.098l.49-3.334a11.5 11.5 0 001.929-1.094l3.226 1.262a1.328 1.293 0 00.484.09c.48 0 .921-.256 1.144-.653l2.848-4.803a1.277 1.277 0 00-.332-1.65zm-13.944 1.65c-2.727 0-4.944-2.16-4.944-4.815 0-2.655 2.217-4.815 4.944-4.815s4.945 2.16 4.945 4.815c0 2.655-2.218 4.815-4.945 4.815z" />
	</symbol>

	<symbol id="invisible" viewBox="0 0 35.719 31.75">
		<path d="M17.86 5.482C8.736 5.482.607 14.965.265 15.369a.74.74 0 000 .957c.204.241 3.192 3.71 7.502 6.474l4.64-4.641a5.894 5.894 0 01-.47-2.312 5.93 5.93 0 015.923-5.923 5.894 5.894 0 012.311.471l3.817-3.816c-1.86-.665-3.902-1.097-6.128-1.097zm17.638 9.943c-.19-.274-3.333-4.698-8.618-7.55l4.091-4.092a.741.741 0 00-1.047-1.047L4.75 27.91a.741.741 0 000 1.047.733.733 0 00.523.218c.19 0 .379-.072.524-.216l4.642-4.643c2.288 1.117 4.812 1.897 7.42 1.897 9.124 0 17.254-9.483 17.596-9.887a.743.743 0 00.043-.9zM17.86 21.771c-1.367 0-2.61-.484-3.613-1.263l8.273-8.274c.779 1.004 1.263 2.247 1.263 3.614a5.93 5.93 0 01-5.923 5.923z" />
	</symbol>

	<symbol id="visible" viewBox="0 0 35.719 31.75">
		<path d="M35.498 15.453c-.28-.406-7.006-9.944-17.638-9.944C8.736 5.51.607 14.992.265 15.397a.74.74 0 000 .956c.342.405 8.471 9.888 17.595 9.888 9.123 0 17.253-9.484 17.595-9.888a.743.743 0 00.043-.9zM17.86 21.798a5.93 5.93 0 01-5.923-5.923 5.93 5.93 0 015.923-5.923 5.93 5.93 0 015.923 5.923 5.93 5.93 0 01-5.923 5.923z" />
	</symbol>

	<symbol id="users" viewBox="0 0 39.952 31.75">
		<path d="M23.009 9.069a8.256 8.256 0 01-8.256 8.256A8.256 8.256 0 016.496 9.07 8.256 8.256 0 0114.753.813a8.256 8.256 0 018.256 8.256zm.487 7.904a11.24 9.932 0 01-8.743 3.704 11.24 9.932 0 01-8.748-3.7C2.405 19.99.08 24.823.08 30.293h29.347c0-5.473-2.328-10.307-5.93-13.32zm8.319-7.74a4.85 4.85 0 100 9.7 4.85 4.85 0 000-9.7zm.58 13.437c1.056 2.86 1.316 5.898 1.316 7.555h6.162c0-1.274-1.281-7.222-3.476-9.3-1.161.812-2.743 1.384-4.001 1.745z"/>
	</symbol>

	<symbol id="heart" viewBox="0 0 31.75 31.75">
		<path d="M23.175 3.17c-1.69 0-3.24.536-4.605 1.593-1.31 1.012-2.182 2.302-2.695 3.24-.513-.938-1.385-2.227-2.695-3.24-1.366-1.057-2.915-1.592-4.605-1.592C3.858 3.17.3 7.029.3 12.145c0 5.527 4.233 9.558 11.155 15.034 1.502 1.187 3.067 2.414 4.419 3.49 1.856-1.463 3.152-2.411 4.42-3.491 6.716-5.724 11.154-9.506 11.154-15.033 0-5.116-3.557-8.974-8.274-8.974z" />
	</symbol>

	<symbol id="arrow-right" viewBox="0 0 33.602 33.602">
		<path d="M.13 1.318L9.849 16.8.131 32.284l33.34-15.483z"/>
	</symbol>

	<symbol id="like" viewBox="0 0 31.75 31.75">
		<path d="M1.173 14.037v15.927h6.739l1.837-.62V14.037zm29.404 4.595c0-.737-.292-1.423-.798-1.929a3.042 3.042 0 00.784-2.339c-.143-1.557-1.546-2.777-3.195-2.777H19.8c.375-1.138.976-3.225.976-4.9 0-2.658-2.258-4.901-3.676-4.901-1.273 0-2.182.717-2.221.746a.616.616 0 00-.23.479v4.154l-3.528 7.644-.147.075v13.13c.998.471 2.26.725 3.063.725h11.246c1.334 0 2.502-.9 2.776-2.14a2.756 2.756 0 00-.222-1.84 2.744 2.744 0 001.227-3.677 2.743 2.743 0 001.513-2.45z"/>
	</symbol>

	<symbol id="trash-can" viewBox="0 0 31.75 31.75">
		<path d="M5.05 9.293H26.7l-1.486-3.721H6.536zm1.309 1.873h19.032l-2.34 20.558H8.699zm7.353-8.489c0-.442.36-.801.8-.801h2.725c.442 0 .801.36.801.801v1.081h1.85v-1.08c0-1.462-1.19-2.652-2.65-2.652h-2.725a2.654 2.654 0 00-2.65 2.651v1.081h1.849z"/>
	</symbol>

	<symbol id="calendar" viewBox="0 0 31.75 31.75">
		<path d="M9.385 1.393v1.731H3.76v3.75h26.308v-3.75h-5.624V1.393c-.538 0-1.201.02-1.875 0v1.731H17.82V1.393h-1.875v1.731H11.26V1.393c-.649 0-1.365.015-1.875 0zM3.729 8.748C3.296 14.17 2.305 18.984 0 23.746h25.123c2.745-4.669 4.336-10.178 4.915-14.998zm26.34 8.79c-1.3 3.615-2.468 5.809-4.027 8.083H3.76v3.75h26.31v-9.239z"/>
	</symbol>

	<symbol id="user" viewBox="0 0 31.75 31.75">
		<path d="M15.875 17.145c6.837 0 12.34 4.614 12.34 10.346v1.472H3.536v-1.472c0-5.732 5.503-10.346 12.34-10.346zm0-16.215C11.803.93 8.49 4.243 8.49 8.315c0 4.072 3.313 7.385 7.385 7.385 4.072 0 7.385-3.313 7.385-7.385 0-4.072-3.313-7.385-7.385-7.385z"/>
	</symbol>

	<symbol id="archive" viewBox="0 0 31.75 31.75">
		<path d="M3.736 7.835V29.34h24.278V7.835zm6.018 4.317h12.243v4.918H9.754zM5.344 4.35h21.061v1.944H5.345zM6.965.786h17.821V2.73H6.965z"/>
	</symbol>

	<symbol id="logout" viewBox="0 0 32.279 31.75">
		<path d="M22.983 6.22v5.323h-7.087v2.468h7.087v5.323l9.296-6.557zM.196 1.413v26.409c3.872 1.323 8.728 2.864 12.202 3.928v-4.423h7.322v-9.135c-.773 0-1.688.022-2.44 0v6.667h-4.882V5.196L8.307 3.881h8.973v5.434h2.44V1.413z"/>
	</symbol>

	<symbol id="pencil" viewBox="0 0 32.279 31.75">
		<path d="M19.386 6.484L4.464 21.407c-.748 2.477-1.943 7.73-1.943 7.73l7.757-1.915L25.201 12.3zm9.512-2.034l-1.661-1.661c-1.11-1.11-3.045-1.11-4.154 0l-2.035 2.035 5.815 5.814 2.035-2.034c.555-.555.86-1.292.86-2.077 0-.785-.305-1.523-.86-2.077z" />
	</symbol>

	<symbol id="bookmark-selected" viewBox="0 0 32.279 31.75">
		<path d="M6.56 1.362V31.75l9.58-9.588 9.579 9.588V1.362z"/>
	</symbol>

	<symbol id="bookmark" viewBox="0 0 32.279 31.75">
		<path d="M6.56 1.362V31.75l9.58-9.588 9.579 9.588V1.362zm2.513 2.647h14.133v21.366l-7.067-6.742-7.066 6.742z" />
	</symbol>

</svg>
