<?xml version="1.0" standalone="no"?>
<!DOCTYPE svg PUBLIC "-//W3C//DTD SVG 20010904//EN"
 "http://www.w3.org/TR/2001/REC-SVG-20010904/DTD/svg10.dtd">
<svg version="1.0" xmlns="http://www.w3.org/2000/svg"
 width="768.000000pt" height="768.000000pt" viewBox="0 0 768.000000 768.000000"
 preserveAspectRatio="xMidYMid meet">
<metadata>
Created by potrace 1.11, written by Peter Selinger 2001-2013
</metadata>
<g transform="translate(0.000000,768.000000) scale(0.100000,-0.100000)"
fill="#000000" stroke="none">
<path d="M1277 7113 c-2 -5 -3 -132 -3 -283 l1 -275 2525 0 2525 0 0 280 0
280 -2522 3 c-1387 1 -2523 -1 -2526 -5z"/>
<path d="M781 5922 c0 -98 -1 -183 -2 -188 -1 -5 -1 -13 0 -19 1 -5 2 -49 1
-97 -1 -85 -1 -88 22 -89 30 -1 6046 -1 6075 0 23 1 23 3 22 124 0 68 1 127 2
133 1 5 1 11 0 14 -5 14 -3 209 2 217 3 5 2 15 -2 22 -4 7 -6 23 -3 37 l4 24
-3060 0 -3061 0 0 -178z"/>
<path d="M393 5060 c-17 -5 -18 -23 -18 -312 0 -168 3 -309 7 -313 8 -8 6907
-9 6915 -1 7 7 8 615 1 622 -7 7 -6880 11 -6905 4z"/>
<path d="M1197 3963 c-3 -3 -274 -5 -602 -5 l-595 0 0 -1704 0 -1704 3840 0
3840 0 0 1703 0 1704 -37 1 c-21 1 -56 1 -78 1 -84 1 -321 2 -335 2 -8 -1 -80
-1 -160 -1 -80 0 -152 0 -160 0 -8 0 -80 0 -160 0 -80 0 -152 1 -160 1 -154 0
-2869 0 -2880 -1 -8 0 -80 0 -160 0 -80 0 -152 0 -160 0 -14 0 -291 0 -315 1
-5 0 -68 -1 -140 -1 -71 -1 -148 -1 -170 -1 -22 1 -88 0 -148 -2 -59 -1 -107
2 -107 6 0 5 -5 5 -11 2 -13 -9 -1273 -10 -1286 -2 -6 4 -13 4 -16 0z"/>
</g>
</svg>
